{
    "accessors": [
        {
            "bufferView": 3,
            "byteOffset": 0,
            "componentType": 5123,
            "count": 105144,
            "max": [
                17573
            ],
            "min": [
                0
            ],
            "name": "accessor_buffer_Cube.007_2",
            "type": "SCALAR"
        },
        {
            "bufferView": 0,
            "byteOffset": 0,
            "componentType": 5126,
            "count": 3533,
            "max": [
                71.3593521118164,
                67.82811737060547,
                96.64816284179688
            ],
            "min": [
                -71.3593521118164,
                57.939857482910156,
                48.73023986816406
            ],
            "name": "accessor_buffer_Sphere.003_0",
            "type": "VEC3"
        },
        {
            "bufferView": 2,
            "byteOffset": 0,
            "componentType": 5126,
            "count": 17574,
            "max": [
                76.7664794921875,
                93.15782165527344,
                132.96841430664062
            ],
            "min": [
                -76.7664794921875,
                -0.6375992298126221,
                -92.8216323852539
            ],
            "name": "accessor_buffer_Cube.007_0",
            "type": "VEC3"
        },
        {
            "bufferView": 0,
            "byteOffset": 12,
            "componentType": 5126,
            "count": 3533,
            "max": [
                0.9989623427391052,
                1.0,
                0.99993896484375
            ],
            "min": [
                -0.9989623427391052,
                -1.0,
                -0.99993896484375
            ],
            "name": "accessor_buffer_Sphere.003_1",
            "type": "VEC3"
        },
        {
            "bufferView": 1,
            "byteOffset": 0,
            "componentType": 5123,
            "count": 23040,
            "max": [
                3532
            ],
            "min": [
                0
            ],
            "name": "accessor_buffer_Sphere.003_2",
            "type": "SCALAR"
        },
        {
            "bufferView": 2,
            "byteOffset": 12,
            "componentType": 5126,
            "count": 17574,
            "max": [
                0.999847412109375,
                0.999969482421875,
                0.999969482421875
            ],
            "min": [
                -0.999847412109375,
                -1.0,
                -0.999847412109375
            ],
            "name": "accessor_buffer_Cube.007_1",
            "type": "VEC3"
        }
    ],
    "asset": {
        "copyright": "",
        "generator": "blendergltf v1.2.0",
        "version": "2.0"
    },
    "bufferViews": [
        {
            "buffer": 0,
            "byteLength": 84792,
            "byteOffset": 0,
            "byteStride": 24,
            "name": "bufferView_buffer_Sphere.003_0",
            "target": 34962
        },
        {
            "buffer": 0,
            "byteLength": 46084,
            "byteOffset": 84792,
            "name": "bufferView_buffer_Sphere.003_1",
            "target": 34963
        },
        {
            "buffer": 0,
            "byteLength": 421776,
            "byteOffset": 130876,
            "byteStride": 24,
            "name": "bufferView_buffer_Cube.007_0",
            "target": 34962
        },
        {
            "buffer": 0,
            "byteLength": 210292,
            "byteOffset": 552652,
            "name": "bufferView_buffer_Cube.007_1",
            "target": 34963
        }
    ],
    "buffers": [
        {
            "byteLength": 762944,
            "name": "buffer_Cerberos1",
            "uri": "data:application/octet-stream;base64,"
        }
    ],
    "materials": [
        {
            "alphaMode": "OPAQUE",
            "doubleSided": false,
            "emissiveFactor": [
                0.0,
                0.0,
                0.0
            ],
            "name": "Material.001",
            "pbrMetallicRoughness": {
                "baseColorFactor": [
                    0.64000004529953,
                    0.02575373463332653,
                    0.085318423807621,
                    1.0
                ],
                "metallicFactor": 0.0,
                "roughnessFactor": 1.0
            }
        },
        {
            "alphaMode": "OPAQUE",
            "doubleSided": false,
            "emissiveFactor": [
                0.0,
                0.0,
                0.0
            ],
            "name": "Material.002",
            "pbrMetallicRoughness": {
                "baseColorFactor": [
                    0.050976671278476715,
                    0.050976671278476715,
                    0.050976671278476715,
                    1.0
                ],
                "metallicFactor": 0.0,
                "roughnessFactor": 1.0
            }
        }
    ],
    "meshes": [
        {
            "name": "Sphere.003",
            "primitives": [
                {
                    "attributes": {
                        "NORMAL": 3,
                        "POSITION": 1
                    },
                    "indices": 4,
                    "material": 0,
                    "mode": 4
                }
            ]
        },
        {
            "name": "Cube.007",
            "primitives": [
                {
                    "attributes": {
                        "NORMAL": 5,
                        "POSITION": 2
                    },
                    "indices": 0,
                    "material": 1,
                    "mode": 4
                }
            ]
        }
    ],
    "nodes": [
        {
            "mesh": 1,
            "name": "Cube.001",
            "rotation": [
                0.0,
                0.0,
                0.0,
                1.0
            ],
            "scale": [
                1.0,
                1.0,
                1.0
            ],
            "translation": [
                0.0,
                0.0,
                -26.966096878051758
            ]
        },
        {
            "mesh": 0,
            "name": "Sphere.001",
            "rotation": [
                0.0,
                0.0,
                0.0,
                1.0
            ],
            "scale": [
                1.0,
                1.0,
                1.0
            ],
            "translation": [
                0.0,
                0.0,
                -4.285776138305664
            ]
        }
    ],
    "scene": 0,
    "scenes": [
        {
            "extras": {
                "background_color": [
                    0.4969230890274048,
                    0.4969230890274048,
                    0.4969230890274048
                ],
                "frames_per_second": 24
            },
            "name": "Scene",
            "nodes": [
                1,
                0
            ]
        }
    ]
}
