{
    "accessors": [
        {
            "bufferView": 0,
            "byteOffset": 0,
            "componentType": 5126,
            "count": 202,
            "max": [
                0.7038400769233704,
                0.4364800453186035,
                0.10660528391599655
            ],
            "min": [
                -0.6897600293159485,
                0.0,
                0.0
            ],
            "name": "accessor_buffer_Z_POSITION_0",
            "type": "VEC3"
        },
        {
            "bufferView": 1,
            "byteOffset": 0,
            "componentType": 5126,
            "count": 202,
            "max": [
                1.0,
                1.0,
                1.0
            ],
            "min": [
                -0.9999999403953552,
                -1.0,
                -1.0
            ],
            "name": "accessor_buffer_Z_NORMAL_0",
            "type": "VEC3"
        },
        {
            "bufferView": 2,
            "byteOffset": 0,
            "componentType": 5123,
            "count": 252,
            "max": [
                201
            ],
            "min": [
                0
            ],
            "name": "accessor_buffer_Z_0",
            "type": "SCALAR"
        },
        {
            "bufferView": 3,
            "byteOffset": 0,
            "componentType": 5121,
            "count": 202,
            "max": [
                2,
                0,
                0,
                0
            ],
            "min": [
                0,
                0,
                0,
                0
            ],
            "name": "accessor_buffer_Z_skin_0",
            "type": "VEC4"
        },
        {
            "bufferView": 3,
            "byteOffset": 16,
            "componentType": 5126,
            "count": 202,
            "max": [
                1.0,
                0.0,
                0.0,
                0.0
            ],
            "min": [
                0.9999998807907104,
                0.0,
                0.0,
                0.0
            ],
            "name": "accessor_buffer_Z_skin_1",
            "type": "VEC4"
        },
        {
            "bufferView": 4,
            "byteOffset": 0,
            "componentType": 5126,
            "count": 3,
            "max": [
                1.0,
                0.0,
                0.0,
                0.0,
                0.0,
                1.0,
                0.0,
                0.0,
                0.0,
                0.0,
                1.0,
                0.0,
                0.5,
                0.0,
                0.0,
                1.0
            ],
            "min": [
                1.0,
                0.0,
                0.0,
                0.0,
                0.0,
                1.0,
                0.0,
                0.0,
                0.0,
                0.0,
                1.0,
                0.0,
                -0.5,
                0.0,
                0.0,
                1.0
            ],
            "name": "accessor_buffer_IBM_Z_skin_0",
            "type": "MAT4"
        },
        {
            "bufferView": 5,
            "byteOffset": 0,
            "componentType": 5126,
            "count": 25,
            "max": [
                0.9999999999999996
            ],
            "min": [
                0
            ],
            "name": "accessor_buffer_Sleeping_FloatingUp_time_0",
            "type": "SCALAR"
        },
        {
            "bufferView": 6,
            "byteOffset": 0,
            "componentType": 5126,
            "count": 25,
            "max": [
                0.0,
                0.0,
                0.0
            ],
            "min": [
                0.0,
                0.0,
                0.0
            ],
            "name": "accessor_buffer_Bone_Sleeping_FloatingUp_0",
            "type": "VEC3"
        },
        {
            "bufferView": 7,
            "byteOffset": 0,
            "componentType": 5126,
            "count": 25,
            "max": [
                1.0,
                1.0,
                1.0
            ],
            "min": [
                1.0,
                1.0,
                1.0
            ],
            "name": "accessor_buffer_Bone_Sleeping_FloatingUp_1",
            "type": "VEC3"
        },
        {
            "bufferView": 8,
            "byteOffset": 0,
            "componentType": 5126,
            "count": 25,
            "max": [
                0.5854479074478149,
                2.2250444889068604,
                -2.3900315682112705e-07
            ],
            "min": [
                0.0,
                0.0,
                -2.3900315682112705e-07
            ],
            "name": "accessor_buffer_Bone.002_Sleeping_FloatingUp_0",
            "type": "VEC3"
        },
        {
            "bufferView": 9,
            "byteOffset": 0,
            "componentType": 5126,
            "count": 25,
            "max": [
                2.1559996604919434,
                2.1559996604919434,
                2.1559996604919434
            ],
            "min": [
                1.0,
                1.0,
                1.0
            ],
            "name": "accessor_buffer_Bone.002_Sleeping_FloatingUp_1",
            "type": "VEC3"
        },
        {
            "bufferView": 10,
            "byteOffset": 0,
            "componentType": 5126,
            "count": 25,
            "max": [
                0.5858080387115479,
                0.8451711535453796,
                -3.2210667910703705e-08
            ],
            "min": [
                0.0,
                0.0,
                -3.2210667910703705e-08
            ],
            "name": "accessor_buffer_Bone.001_Sleeping_FloatingUp_0",
            "type": "VEC3"
        },
        {
            "bufferView": 11,
            "byteOffset": 0,
            "componentType": 5126,
            "count": 25,
            "max": [
                1.5399999618530273,
                1.5399999618530273,
                1.5399999618530273
            ],
            "min": [
                1.0,
                1.0,
                1.0
            ],
            "name": "accessor_buffer_Bone.001_Sleeping_FloatingUp_1",
            "type": "VEC3"
        }
    ],
    "animations": [
        {
            "channels": [
                {
                    "sampler": 0,
                    "target": {
                        "node": 2,
                        "path": "translation"
                    }
                },
                {
                    "sampler": 1,
                    "target": {
                        "node": 2,
                        "path": "scale"
                    }
                },
                {
                    "sampler": 2,
                    "target": {
                        "node": 4,
                        "path": "translation"
                    }
                },
                {
                    "sampler": 3,
                    "target": {
                        "node": 4,
                        "path": "scale"
                    }
                },
                {
                    "sampler": 4,
                    "target": {
                        "node": 3,
                        "path": "translation"
                    }
                },
                {
                    "sampler": 5,
                    "target": {
                        "node": 3,
                        "path": "scale"
                    }
                }
            ],
            "name": "FloatingUp",
            "samplers": [
                {
                    "input": 6,
                    "interpolation": "LINEAR",
                    "output": 7
                },
                {
                    "input": 6,
                    "interpolation": "LINEAR",
                    "output": 8
                },
                {
                    "input": 6,
                    "interpolation": "LINEAR",
                    "output": 9
                },
                {
                    "input": 6,
                    "interpolation": "LINEAR",
                    "output": 10
                },
                {
                    "input": 6,
                    "interpolation": "LINEAR",
                    "output": 11
                },
                {
                    "input": 6,
                    "interpolation": "LINEAR",
                    "output": 12
                }
            ]
        }
    ],
    "asset": {
        "copyright": "",
        "generator": "blendergltf v1.2.0",
        "version": "2.0"
    },
    "bufferViews": [
        {
            "buffer": 0,
            "byteLength": 2424,
            "byteOffset": 0,
            "byteStride": 12,
            "name": "bufferView_buffer_Z_POSITION_0",
            "target": 34962
        },
        {
            "buffer": 0,
            "byteLength": 2424,
            "byteOffset": 2424,
            "byteStride": 12,
            "name": "bufferView_buffer_Z_NORMAL_0",
            "target": 34962
        },
        {
            "buffer": 0,
            "byteLength": 508,
            "byteOffset": 4848,
            "name": "bufferView_buffer_Z_0",
            "target": 34963
        },
        {
            "buffer": 0,
            "byteLength": 6464,
            "byteOffset": 5356,
            "byteStride": 32,
            "name": "bufferView_buffer_Z_skin_0",
            "target": 34962
        },
        {
            "buffer": 0,
            "byteLength": 192,
            "byteOffset": 11820,
            "byteStride": 64,
            "name": "bufferView_buffer_IBM_Z_skin_0"
        },
        {
            "buffer": 0,
            "byteLength": 100,
            "byteOffset": 12012,
            "byteStride": 4,
            "name": "bufferView_buffer_Sleeping_FloatingUp_time_0"
        },
        {
            "buffer": 0,
            "byteLength": 300,
            "byteOffset": 12112,
            "byteStride": 12,
            "name": "bufferView_buffer_Bone_Sleeping_FloatingUp_0"
        },
        {
            "buffer": 0,
            "byteLength": 300,
            "byteOffset": 12412,
            "byteStride": 12,
            "name": "bufferView_buffer_Bone_Sleeping_FloatingUp_1"
        },
        {
            "buffer": 0,
            "byteLength": 300,
            "byteOffset": 12712,
            "byteStride": 12,
            "name": "bufferView_buffer_Bone.002_Sleeping_FloatingUp_0"
        },
        {
            "buffer": 0,
            "byteLength": 300,
            "byteOffset": 13012,
            "byteStride": 12,
            "name": "bufferView_buffer_Bone.002_Sleeping_FloatingUp_1"
        },
        {
            "buffer": 0,
            "byteLength": 300,
            "byteOffset": 13312,
            "byteStride": 12,
            "name": "bufferView_buffer_Bone.001_Sleeping_FloatingUp_0"
        },
        {
            "buffer": 0,
            "byteLength": 300,
            "byteOffset": 13612,
            "byteStride": 12,
            "name": "bufferView_buffer_Bone.001_Sleeping_FloatingUp_1"
        }
    ],
    "buffers": [
        {
            "byteLength": 13912,
            "name": "buffer_ZZZ",
            "uri": "data:application/octet-stream;base64,"
        }
    ],
    "materials": [
        {
            "alphaMode": "OPAQUE",
            "doubleSided": false,
            "emissiveFactor": [
                0.0,
                0.0,
                0.0
            ],
            "name": "Material",
            "pbrMetallicRoughness": {
                "baseColorFactor": [
                    0.64000004529953,
                    0.64000004529953,
                    0.64000004529953,
                    1.0
                ],
                "metallicFactor": 0.0,
                "roughnessFactor": 1.0
            }
        }
    ],
    "meshes": [
        {
            "name": "Z",
            "primitives": [
                {
                    "attributes": {
                        "JOINTS_0": 3,
                        "NORMAL": 1,
                        "POSITION": 0,
                        "WEIGHTS_0": 4
                    },
                    "indices": 2,
                    "material": 0,
                    "mode": 4
                }
            ]
        }
    ],
    "nodes": [
        {
            "children": [
                1,
                2,
                3,
                4
            ],
            "name": "Sleeping",
            "rotation": [
                0.0,
                0.0,
                0.0,
                1.0
            ],
            "scale": [
                1.0,
                1.0,
                1.0
            ],
            "translation": [
                0.0,
                0.0,
                0.0
            ]
        },
        {
            "mesh": 0,
            "name": "Z",
            "rotation": [
                0.0,
                0.0,
                0.0,
                1.0
            ],
            "scale": [
                1.0,
                1.0,
                1.0
            ],
            "skin": 0,
            "translation": [
                0.0,
                0.0,
                0.0
            ]
        },
        {
            "name": "Bone",
            "rotation": [
                0.0,
                0.0,
                0.0,
                1.0
            ],
            "scale": [
                1.0,
                1.0,
                1.0
            ],
            "translation": [
                0.0,
                0.0,
                0.0
            ]
        },
        {
            "name": "Bone.001",
            "rotation": [
                0.0,
                0.0,
                0.0,
                1.0
            ],
            "scale": [
                1.0,
                1.0,
                1.0
            ],
            "translation": [
                -0.5,
                0.0,
                0.0
            ]
        },
        {
            "name": "Bone.002",
            "rotation": [
                0.0,
                0.0,
                0.0,
                1.0
            ],
            "scale": [
                1.0,
                1.0,
                1.0
            ],
            "translation": [
                0.5,
                0.0,
                0.0
            ]
        }
    ],
    "scene": 0,
    "scenes": [
        {
            "extras": {
                "background_color": [
                    0.05087608844041824,
                    0.05087608844041824,
                    0.05087608844041824
                ],
                "frames_per_second": 24
            },
            "name": "Scene",
            "nodes": [
                0
            ]
        }
    ],
    "skins": [
        {
            "inverseBindMatrices": 5,
            "joints": [
                2,
                3,
                4
            ],
            "name": "Z",
            "skeleton": 2
        }
    ]
}
